<svg xmlns="http://www.w3.org/2000/svg" xmlns:xlink="http://www.w3.org/1999/xlink" width="500" zoomAndPan="magnify" viewBox="0 0 375 374.999991" height="500" preserveAspectRatio="xMidYMid meet" version="1.0"><defs><g/><clipPath id="id1"><path d="M 213 85.167969 L 252 85.167969 L 252 111 L 213 111 Z M 213 85.167969 " clip-rule="nonzero"/></clipPath><clipPath id="id2"><path d="M 255 111 L 265.238281 111 L 265.238281 128 L 255 128 Z M 255 111 " clip-rule="nonzero"/></clipPath><clipPath id="id3"><path d="M 109.988281 129 L 119 129 L 119 146 L 109.988281 146 Z M 109.988281 129 " clip-rule="nonzero"/></clipPath><clipPath id="id4"><path d="M 124 186 L 250 186 L 250 199.167969 L 124 199.167969 Z M 124 186 " clip-rule="nonzero"/></clipPath></defs><g clip-path="url(#id1)"><path fill="#f0861f" d="M 248.160156 91.613281 C 247.753906 94.417969 247.597656 97.199219 247.667969 99.925781 C 248.933594 99.34375 250.191406 98.75 251.445312 98.144531 C 251.109375 94.042969 251.242188 89.730469 251.898438 85.171875 C 239.984375 95.472656 227.585938 104.394531 213.859375 109.507812 C 214.054688 109.792969 214.222656 110.09375 214.375 110.417969 C 224.742188 106.554688 239.15625 99.394531 248.160156 91.613281 Z M 248.160156 91.613281 " fill-opacity="1" fill-rule="evenodd"/></g><g clip-path="url(#id2)"><path fill="#f0861f" d="M 258.289062 115.355469 C 257.359375 116.617188 256.496094 117.898438 255.691406 119.203125 C 255.769531 121.917969 256.046875 124.617188 256.511719 127.304688 C 258.4375 121.835938 261.285156 116.421875 265.238281 111.074219 C 262.105469 111.777344 258.980469 112.425781 255.867188 113.003906 C 255.785156 113.964844 255.730469 114.925781 255.699219 115.882812 C 256.582031 115.71875 257.445312 115.546875 258.289062 115.359375 Z M 258.289062 115.355469 " fill-opacity="1" fill-rule="evenodd"/></g><path fill="#f0861f" d="M 212.757812 112.84375 C 212.679688 112.464844 212.574219 112.097656 212.4375 111.746094 C 228.355469 109.746094 243.816406 103.355469 259.113281 95.371094 C 251.410156 114.914062 254.492188 132.246094 262.910156 148.488281 L 218.035156 138.597656 C 218.367188 137.820312 218.628906 137 218.835938 136.15625 L 255.289062 143.902344 C 248.925781 131.632812 247.6875 116.0625 253.5 101.296875 C 241.945312 107.328125 224.78125 111.335938 212.757812 112.847656 Z M 212.757812 112.84375 " fill-opacity="1" fill-rule="evenodd"/><path fill="#f0861f" d="M 248.984375 138.730469 C 248.9375 138.59375 248.890625 138.457031 248.84375 138.320312 C 248.890625 138.457031 248.9375 138.59375 248.984375 138.730469 Z M 248.984375 138.730469 " fill-opacity="1" fill-rule="evenodd"/><path fill="#f0861f" d="M 246.796875 111.46875 L 246.875 111.011719 C 246.847656 111.164062 246.824219 111.316406 246.796875 111.46875 Z M 246.796875 111.46875 " fill-opacity="1" fill-rule="evenodd"/><path fill="#f0861f" d="M 247.0625 110.015625 C 247.089844 109.867188 247.121094 109.714844 247.148438 109.566406 C 247.121094 109.71875 247.089844 109.867188 247.0625 110.015625 Z M 247.0625 110.015625 " fill-opacity="1" fill-rule="evenodd"/><path fill="#f0861f" d="M 247.152344 109.554688 C 247.183594 109.40625 247.214844 109.253906 247.246094 109.105469 Z M 247.152344 109.554688 " fill-opacity="1" fill-rule="evenodd"/><path fill="#f0861f" d="M 247.257812 109.046875 C 247.289062 108.914062 247.316406 108.777344 247.347656 108.644531 C 247.316406 108.78125 247.285156 108.914062 247.257812 109.046875 Z M 247.257812 109.046875 " fill-opacity="1" fill-rule="evenodd"/><path fill="#f0861f" d="M 247.359375 108.585938 C 247.394531 108.433594 247.425781 108.277344 247.460938 108.128906 C 247.425781 108.28125 247.394531 108.433594 247.359375 108.585938 Z M 247.359375 108.585938 " fill-opacity="1" fill-rule="evenodd"/><path fill="#f0861f" d="M 245.117188 98.945312 C 245.121094 99.644531 245.140625 100.347656 245.171875 101.046875 C 244.234375 101.460938 243.289062 101.867188 242.339844 102.269531 C 242.226562 102.21875 242.117188 102.160156 242.011719 102.09375 C 241.589844 101.835938 241.257812 101.480469 241.027344 101.074219 C 238.300781 102.808594 235.425781 104.464844 232.503906 106.011719 C 230.789062 106.589844 229.066406 107.132812 227.332031 107.632812 C 229.257812 106.703125 231.160156 105.730469 233.03125 104.722656 C 236.699219 102.746094 240.296875 100.59375 243.722656 98.222656 L 245.109375 97.261719 L 245.121094 98.945312 Z M 245.117188 98.945312 " fill-opacity="1" fill-rule="evenodd"/><path fill="#f0861f" d="M 127.316406 107.132812 C 127.5 108.636719 127.609375 110.144531 127.65625 111.648438 L 128.59375 111.8125 C 128.578125 111.1875 128.546875 110.5625 128.507812 109.9375 C 129.042969 109.917969 129.578125 109.757812 130.0625 109.445312 C 130.519531 109.152344 130.875 108.757812 131.113281 108.3125 L 145.261719 114.671875 L 148.929688 115.300781 L 127.117188 105.496094 Z M 127.316406 107.132812 " fill-opacity="1" fill-rule="evenodd"/><path fill="#f0861f" d="M 119.78125 110.300781 C 119.492188 105.238281 118.589844 100.167969 117.214844 95.097656 L 156.65625 113.183594 L 157.125 113.394531 C 156.652344 114.054688 156.246094 114.769531 155.878906 115.515625 L 154.84375 115.050781 L 123.40625 100.921875 C 124.300781 104.230469 124.832031 107.679688 124.976562 111.191406 Z M 119.78125 110.300781 " fill-opacity="1" fill-rule="evenodd"/><g clip-path="url(#id3)"><path fill="#f0861f" d="M 116.429688 141.074219 C 117.261719 139.832031 118.027344 138.566406 118.734375 137.285156 C 118.539062 134.699219 118.15625 132.132812 117.589844 129.589844 C 115.996094 134.894531 113.519531 140.191406 109.988281 145.476562 C 112.949219 144.664062 115.902344 143.902344 118.847656 143.214844 C 118.878906 142.289062 118.890625 141.371094 118.878906 140.457031 C 118.042969 140.648438 117.226562 140.855469 116.429688 141.074219 Z M 116.429688 141.074219 " fill-opacity="1" fill-rule="evenodd"/></g><path fill="#f0861f" d="M 153.578125 142.714844 L 153.613281 143.914062 C 140.925781 147.15625 128.652344 153.128906 116.542969 160.191406 C 123.015625 141.1875 119.296875 124.78125 110.523438 109.652344 L 153.8125 117.082031 C 153.527344 117.839844 153.316406 118.632812 153.15625 119.449219 L 118.007812 113.691406 C 124.636719 125.121094 126.523438 139.929688 121.632812 154.285156 C 130.496094 149.113281 143.046875 145.085938 153.578125 142.71875 Z M 153.578125 142.714844 " fill-opacity="1" fill-rule="evenodd"/><path fill="#f0861f" d="M 126.175781 147.324219 C 127.914062 137.726562 127.035156 127.757812 123.390625 118.6875 L 122.777344 117.160156 L 153.6875 122.222656 L 153.605469 123.089844 C 153.527344 123.890625 153.460938 124.691406 153.378906 125.496094 C 153.222656 126.988281 153.148438 128.535156 153.195312 130.039062 C 153.199219 130.238281 153.214844 130.550781 153.242188 130.921875 L 153.359375 135.027344 C 151.921875 133.015625 152.207031 127.765625 152.453125 125.398438 C 152.535156 124.613281 152.601562 123.808594 152.679688 123 L 124.257812 118.34375 L 127.363281 118.851562 C 127.25 119.34375 127.007812 119.816406 126.640625 120.21875 C 126.253906 120.640625 125.777344 120.933594 125.269531 121.089844 C 127.765625 128.53125 128.515625 136.464844 127.578125 144.261719 L 127.617188 143.925781 C 128.449219 143.832031 129.316406 144.082031 129.980469 144.679688 C 130.363281 145.03125 130.636719 145.457031 130.792969 145.921875 L 130.5 146.039062 C 137.859375 143.054688 145.996094 140.691406 153.472656 139.0625 L 153.5 140.003906 C 148.847656 141.019531 144.226562 142.261719 139.722656 143.703125 C 135.570312 145.035156 131.453125 146.554688 127.472656 148.335938 L 125.863281 149.058594 Z M 126.175781 147.324219 " fill-opacity="1" fill-rule="evenodd"/><path fill="#f0861f" d="M 124.257812 118.34375 C 124.308594 118.472656 124.359375 118.597656 124.40625 118.726562 C 124.359375 118.597656 124.308594 118.472656 124.257812 118.34375 Z M 124.257812 118.34375 " fill-opacity="1" fill-rule="evenodd"/><path fill="#f0861f" d="M 127.578125 144.269531 L 127.523438 144.707031 C 127.542969 144.5625 127.558594 144.414062 127.578125 144.269531 Z M 127.578125 144.269531 " fill-opacity="1" fill-rule="evenodd"/><path fill="#f0861f" d="M 127.390625 145.667969 C 127.371094 145.8125 127.347656 145.957031 127.324219 146.101562 C 127.347656 145.957031 127.371094 145.8125 127.390625 145.667969 Z M 127.390625 145.667969 " fill-opacity="1" fill-rule="evenodd"/><path fill="#f0861f" d="M 127.324219 146.113281 C 127.300781 146.257812 127.277344 146.402344 127.253906 146.546875 Z M 127.324219 146.113281 " fill-opacity="1" fill-rule="evenodd"/><path fill="#f0861f" d="M 127.246094 146.601562 C 127.222656 146.730469 127.203125 146.859375 127.179688 146.988281 C 127.203125 146.859375 127.222656 146.730469 127.246094 146.601562 Z M 127.246094 146.601562 " fill-opacity="1" fill-rule="evenodd"/><path fill="#f0861f" d="M 127.167969 147.046875 C 127.144531 147.195312 127.117188 147.34375 127.089844 147.492188 C 127.117188 147.34375 127.144531 147.195312 127.167969 147.046875 Z M 127.167969 147.046875 " fill-opacity="1" fill-rule="evenodd"/><path fill="#000000" d="M 184.8125 107.015625 L 184.8125 106.753906 C 184.8125 105.851562 185.121094 105.015625 185.644531 104.351562 C 186.363281 103.433594 187.484375 102.839844 188.738281 102.839844 L 194.214844 102.839844 C 196.371094 102.839844 198.140625 104.601562 198.140625 106.753906 L 198.140625 143.042969 C 198.140625 143.371094 198.101562 143.6875 198.023438 143.992188 L 184.929688 143.992188 C 184.851562 143.6875 184.8125 143.371094 184.8125 143.042969 L 184.8125 142.785156 C 184.8125 134.046875 184.8125 115.78125 184.8125 107.015625 Z M 213.453125 119.621094 L 212.210938 138.414062 C 212.039062 138.667969 211.597656 139.089844 211.441406 139.238281 C 210.667969 139.972656 209.886719 140.667969 209.148438 141.433594 C 207.785156 142.839844 206.324219 143.992188 204.273438 143.992188 L 201.160156 143.992188 C 201.085938 143.917969 201.019531 143.835938 200.953125 143.753906 C 200.433594 143.089844 200.125 142.253906 200.125 141.351562 L 200.125 109.101562 C 200.125 108.199219 200.433594 107.363281 200.953125 106.699219 C 201.675781 105.78125 202.796875 105.1875 204.050781 105.1875 L 209.527344 105.1875 C 211.683594 105.1875 213.453125 106.949219 213.453125 109.105469 Z M 182.773438 142.144531 L 182.773438 142.179688 C 182.773438 142.832031 182.609375 143.449219 182.324219 143.992188 L 180.507812 143.992188 C 179.152344 143.992188 177.847656 144.460938 176.90625 145.460938 C 176.71875 145.664062 176.554688 145.875 176.414062 146.09375 L 173.371094 146.09375 C 172.117188 146.09375 170.996094 145.503906 170.277344 144.582031 C 169.757812 143.917969 169.445312 143.082031 169.445312 142.179688 L 169.445312 109.929688 C 169.445312 109.027344 169.757812 108.191406 170.277344 107.527344 C 170.996094 106.609375 172.117188 106.015625 173.371094 106.015625 L 178.847656 106.015625 C 181.007812 106.015625 182.769531 107.777344 182.769531 109.929688 L 182.769531 142.144531 Z M 214.507812 135.957031 L 215.488281 136.453125 C 215.550781 136.253906 215.613281 136.050781 215.667969 135.847656 L 214.890625 135.683594 L 215.433594 131.882812 C 215.554688 131.039062 215.667969 130.195312 215.796875 129.355469 C 216.011719 127.929688 216.152344 126.476562 216.175781 125.03125 C 216.1875 124.503906 216.160156 123.332031 216.027344 122.542969 L 215.304688 122.28125 L 214.390625 136.175781 L 214.511719 135.957031 Z M 200.585938 159.3125 C 214.207031 159.3125 216.117188 157.242188 222.460938 149.988281 L 212.945312 145.070312 L 209.921875 143.507812 C 209 144.371094 208.007812 145.085938 206.878906 145.527344 L 206.859375 145.535156 L 206.667969 145.605469 L 206.574219 145.640625 L 206.5625 145.644531 L 206.472656 145.671875 L 206.457031 145.679688 L 206.363281 145.707031 L 206.351562 145.710938 L 206.257812 145.738281 L 206.242188 145.742188 L 206.148438 145.769531 L 206.136719 145.773438 L 206.097656 145.78125 L 206.027344 145.800781 L 205.925781 145.824219 L 205.914062 145.828125 L 205.8125 145.847656 L 205.804688 145.851562 L 205.753906 145.859375 L 205.578125 145.894531 L 205.476562 145.914062 L 205.464844 145.914062 L 205.359375 145.929688 L 205.351562 145.933594 L 205.242188 145.945312 L 205.234375 145.949219 L 205.125 145.960938 L 205.121094 145.964844 L 205.007812 145.976562 L 205 145.976562 L 204.886719 145.984375 L 204.882812 145.984375 L 204.761719 145.996094 L 204.644531 146.003906 L 204.523438 146.007812 L 204.402344 146.007812 L 204.277344 146.011719 C 204.277344 146.015625 196.640625 146.011719 195.980469 146.011719 L 186.332031 146.011719 C 183.292969 146.011719 177.117188 144.675781 177.824219 149.558594 C 178.121094 151.621094 179.378906 154.058594 179.835938 155.390625 C 180.582031 157.542969 182.957031 159.308594 185.117188 159.308594 L 200.585938 159.308594 Z M 204.398438 146.011719 Z M 204.523438 146.011719 Z M 204.765625 145.996094 Z M 206.664062 145.605469 Z M 154.6875 138.46875 L 154.6875 117.960938 L 154.707031 117.917969 L 154.6875 117.914062 L 154.6875 114.800781 C 154.6875 113.894531 155 113.0625 155.519531 112.398438 C 156.238281 111.476562 157.359375 110.882812 158.609375 110.882812 L 164.089844 110.882812 C 166.246094 110.882812 168.011719 112.648438 168.011719 114.800781 L 168.011719 141.625 C 168.011719 143.78125 166.246094 145.539062 164.089844 145.539062 L 158.609375 145.539062 C 157.359375 145.539062 156.238281 144.949219 155.519531 144.027344 C 155 143.363281 154.6875 142.527344 154.6875 141.625 L 154.6875 138.515625 L 154.707031 138.507812 L 154.6875 138.464844 Z M 154.6875 138.46875 " fill-opacity="1" fill-rule="evenodd"/><path fill="#000000" d="M 217.304688 157.039062 C 216.65625 157.59375 215.96875 158.109375 215.238281 158.566406 C 210.859375 161.289062 204.945312 161.386719 199.949219 161.386719 L 185.199219 161.386719 C 183.636719 161.386719 182.074219 160.753906 180.8125 159.746094 C 179.683594 158.851562 178.789062 157.65625 178.339844 156.355469 C 177.933594 155.183594 177.367188 154.050781 176.953125 152.859375 C 176.683594 152.078125 176.449219 151.265625 176.332031 150.441406 C 176.25 149.882812 176.234375 149.324219 176.300781 148.785156 L 174.003906 148.785156 C 172.25 148.785156 170.605469 147.976562 169.53125 146.605469 L 169.367188 146.382812 C 168.328125 147.535156 166.824219 148.257812 165.15625 148.257812 L 159.933594 148.257812 C 158.898438 148.257812 157.902344 147.980469 157.035156 147.464844 C 157.035156 158.085938 160.03125 166.441406 169.738281 168.867188 C 169.523438 168.816406 171.808594 174.40625 172.109375 175.390625 C 172.902344 177.96875 173.585938 181.003906 174.105469 184.609375 L 200.753906 184.609375 C 201.269531 181.003906 201.953125 177.96875 202.742188 175.390625 C 203.605469 172.59375 204.59375 170.332031 205.640625 168.453125 C 205.296875 168.539062 217.304688 165.058594 217.304688 157.039062 Z M 212.238281 185.957031 L 208.757812 179.347656 C 208.308594 181.007812 207.914062 182.761719 207.527344 184.699219 L 207.417969 185.257812 C 209.023438 185.464844 210.632812 185.699219 212.238281 185.957031 Z M 201.964844 183.085938 C 201.878906 183.601562 201.800781 184.113281 201.722656 184.632812 L 202.496094 184.699219 C 203.574219 184.804688 204.652344 184.921875 205.726562 185.050781 L 205.648438 184.777344 C 204.84375 181.984375 205.527344 178.789062 206.828125 175.679688 L 206.234375 174.554688 L 204.945312 172.109375 C 204.460938 173.273438 204.039062 174.46875 203.671875 175.671875 C 202.925781 178.09375 202.382812 180.582031 201.964844 183.085938 Z M 201.964844 183.085938 " fill-opacity="1" fill-rule="evenodd"/><path fill="#f0861f" d="M 206.578125 184.507812 C 207.597656 179.40625 208.617188 174.113281 213.402344 166.351562 C 209.835938 171.496094 204.988281 178.984375 206.578125 184.507812 Z M 163.132812 180.367188 C 162.375 176.5625 161.613281 172.621094 158.046875 166.832031 C 160.703125 170.667969 164.320312 176.253906 163.132812 180.367188 Z M 168.316406 184.507812 C 169.90625 178.984375 165.054688 171.496094 161.492188 166.351562 C 166.277344 174.113281 167.296875 179.40625 168.316406 184.507812 Z M 211.761719 180.367188 C 210.574219 176.253906 214.191406 170.667969 216.847656 166.832031 C 213.28125 172.621094 212.519531 176.5625 211.761719 180.367188 Z M 211.761719 180.367188 " fill-opacity="1" fill-rule="evenodd"/><path fill="#f0861f" d="M 206.84375 184.378906 L 206.621094 185.503906 L 206.351562 184.574219 C 205.539062 181.75 206.359375 178.441406 207.839844 175.191406 C 209.304688 171.976562 211.414062 168.8125 213.199219 166.234375 L 213.207031 166.21875 L 213.601562 166.472656 C 208.894531 174.113281 207.847656 179.351562 206.84375 184.382812 Z M 206.574219 183.332031 C 207.285156 179.820312 208.125 176.144531 210.28125 171.578125 C 209.546875 172.816406 208.859375 174.097656 208.269531 175.382812 C 207.027344 178.121094 206.253906 180.886719 206.574219 183.332031 Z M 162.902344 180.414062 L 162.878906 180.285156 C 162.128906 176.542969 161.351562 172.644531 157.847656 166.957031 L 158.238281 166.699219 L 158.25 166.714844 C 159.582031 168.636719 161.152344 171 162.246094 173.398438 C 163.355469 175.835938 163.972656 178.3125 163.359375 180.433594 L 163.09375 181.363281 Z M 160.949219 171.867188 C 162.113281 174.585938 162.664062 176.890625 163.113281 179.085938 C 163.226562 177.378906 162.675781 175.476562 161.816406 173.589844 C 161.550781 173.011719 161.261719 172.433594 160.949219 171.867188 Z M 168.320312 183.332031 C 168.640625 180.886719 167.867188 178.121094 166.625 175.382812 C 166.039062 174.097656 165.347656 172.820312 164.617188 171.585938 C 166.769531 176.144531 167.609375 179.820312 168.320312 183.332031 Z M 167.050781 175.191406 C 168.53125 178.441406 169.355469 181.75 168.539062 184.574219 L 168.273438 185.503906 L 168.050781 184.390625 C 167.046875 179.359375 166 174.117188 161.289062 166.472656 L 161.683594 166.21875 L 161.691406 166.230469 C 163.480469 168.808594 165.585938 171.972656 167.050781 175.191406 Z M 211.535156 180.433594 C 210.921875 178.3125 211.539062 175.835938 212.648438 173.398438 C 213.742188 171 215.3125 168.640625 216.644531 166.714844 L 216.652344 166.703125 L 217.046875 166.957031 C 213.542969 172.644531 212.765625 176.542969 212.015625 180.285156 L 211.800781 181.363281 Z M 213.078125 173.59375 C 212.21875 175.476562 211.664062 177.378906 211.78125 179.089844 C 212.230469 176.890625 212.78125 174.589844 213.945312 171.867188 C 213.632812 172.4375 213.339844 173.011719 213.078125 173.589844 Z M 213.078125 173.59375 " fill-opacity="1" fill-rule="evenodd"/><g clip-path="url(#id4)"><path fill="#f0861f" d="M 249.449219 199.160156 C 207.464844 190.015625 165.933594 190.015625 124.347656 199.160156 C 165.453125 182.765625 207.09375 181.152344 249.449219 199.160156 Z M 249.449219 199.160156 " fill-opacity="1" fill-rule="evenodd"/></g><path fill="#f0861f" d="M 219.511719 132.464844 L 245.761719 138.042969 C 245.90625 137.535156 246.183594 137.054688 246.585938 136.652344 C 247.011719 136.226562 247.523438 135.945312 248.0625 135.804688 C 245.851562 128.023438 245.441406 119.816406 246.734375 111.828125 C 245.859375 111.882812 244.96875 111.582031 244.304688 110.921875 C 243.921875 110.535156 243.660156 110.074219 243.515625 109.585938 L 243.820312 109.476562 C 233.933594 112.953125 222.804688 115.34375 213.449219 116.53125 L 213.449219 117.75 C 214.132812 117.695312 214.734375 117.703125 215.640625 118.027344 L 218.4375 119.042969 C 221 119.976562 220.304688 127.066406 219.867188 129.96875 C 219.742188 130.785156 219.628906 131.625 219.507812 132.464844 Z M 233.816406 127.292969 C 231.535156 127.511719 229.511719 125.839844 229.292969 123.566406 C 229.074219 121.289062 230.75 119.265625 233.03125 119.050781 C 235.804688 118.785156 238.011719 121.277344 237.496094 123.957031 C 237.160156 125.714844 235.691406 127.113281 233.816406 127.292969 Z M 233.816406 127.292969 " fill-opacity="1" fill-rule="evenodd"/><path fill="#f0861f" d="M 233.324219 123.332031 L 233.445312 125.472656 C 232.371094 125.523438 232.351562 124.457031 232.320312 124.382812 C 232.308594 124.351562 232.191406 124.265625 232.1875 124.53125 C 232.183594 124.738281 232.148438 125.550781 232.261719 125.640625 C 232.472656 125.8125 233.152344 125.828125 233.460938 125.804688 L 233.511719 126.667969 L 233.976562 126.644531 L 233.925781 125.730469 C 235.222656 125.363281 235.511719 123.890625 234.394531 122.902344 L 233.742188 122.421875 L 233.644531 120.601562 C 234.566406 120.570312 234.617188 121.421875 234.636719 121.453125 C 234.652344 121.476562 234.773438 121.566406 234.757812 121.265625 L 234.710938 120.367188 L 233.621094 120.28125 L 233.578125 119.417969 L 233.113281 119.441406 L 233.164062 120.363281 C 231.988281 120.722656 231.792969 121.960938 232.734375 122.863281 C 232.878906 123.003906 233.058594 123.148438 233.273438 123.296875 Z M 233.179688 120.71875 L 233.253906 122.070312 C 232.703125 121.617188 232.652344 121.035156 233.179688 120.71875 Z M 233.808594 123.679688 C 234.515625 124.25 234.554688 125.039062 233.902344 125.363281 Z M 233.808594 123.679688 " fill-opacity="1" fill-rule="evenodd"/><path fill="#f0861f" d="M 140.671875 132.429688 L 140.816406 135.003906 C 139.523438 135.066406 139.5 133.785156 139.457031 133.691406 C 139.445312 133.65625 139.304688 133.554688 139.296875 133.875 C 139.292969 134.121094 139.253906 135.101562 139.386719 135.210938 C 139.644531 135.417969 140.464844 135.4375 140.835938 135.410156 L 140.894531 136.449219 L 141.453125 136.417969 L 141.390625 135.316406 C 142.957031 134.878906 143.308594 133.101562 141.957031 131.914062 L 141.171875 131.332031 L 141.054688 129.140625 C 142.167969 129.101562 142.226562 130.125 142.25 130.164062 C 142.269531 130.191406 142.417969 130.300781 142.394531 129.941406 L 142.339844 128.859375 L 141.027344 128.753906 L 140.976562 127.710938 L 140.414062 127.742188 L 140.476562 128.855469 C 139.058594 129.289062 138.824219 130.777344 139.957031 131.867188 C 140.136719 132.035156 140.355469 132.210938 140.609375 132.386719 Z M 140.496094 129.28125 L 140.589844 130.910156 C 139.925781 130.367188 139.859375 129.660156 140.496094 129.28125 Z M 141.257812 132.847656 C 142.109375 133.535156 142.152344 134.484375 141.367188 134.875 Z M 141.257812 132.847656 " fill-opacity="1" fill-rule="evenodd"/><g fill="#000000" fill-opacity="1"><g transform="translate(86.214843, 247.218485)"><g><path d="M 23.53125 -26.78125 C 24.050781 -26.78125 24.414062 -26.664062 24.625 -26.4375 C 24.84375 -26.207031 24.953125 -25.8125 24.953125 -25.25 L 24.953125 -16.75 C 24.953125 -16.21875 24.820312 -15.835938 24.5625 -15.609375 C 24.3125 -15.390625 23.878906 -15.28125 23.265625 -15.28125 C 22.648438 -15.28125 22.210938 -15.390625 21.953125 -15.609375 C 21.703125 -15.835938 21.578125 -16.21875 21.578125 -16.75 L 21.578125 -23.71875 L 15.546875 -23.71875 L 15.546875 -3.0625 L 20.875 -3.0625 C 21.382812 -3.0625 21.75 -2.945312 21.96875 -2.71875 C 22.1875 -2.488281 22.296875 -2.09375 22.296875 -1.53125 C 22.296875 -0.976562 22.1875 -0.582031 21.96875 -0.34375 C 21.75 -0.113281 21.382812 0 20.875 0 L 6.84375 0 C 6.332031 0 5.96875 -0.113281 5.75 -0.34375 C 5.53125 -0.582031 5.421875 -0.976562 5.421875 -1.53125 C 5.421875 -2.09375 5.53125 -2.488281 5.75 -2.71875 C 5.96875 -2.945312 6.332031 -3.0625 6.84375 -3.0625 L 12.15625 -3.0625 L 12.15625 -23.71875 L 6.140625 -23.71875 L 6.140625 -16.75 C 6.140625 -16.21875 6.007812 -15.835938 5.75 -15.609375 C 5.5 -15.390625 5.066406 -15.28125 4.453125 -15.28125 C 3.828125 -15.28125 3.382812 -15.390625 3.125 -15.609375 C 2.875 -15.835938 2.75 -16.21875 2.75 -16.75 L 2.75 -25.25 C 2.75 -25.8125 2.859375 -26.207031 3.078125 -26.4375 C 3.296875 -26.664062 3.660156 -26.78125 4.171875 -26.78125 Z M 23.53125 -26.78125 "/></g></g></g><g fill="#000000" fill-opacity="1"><g transform="translate(113.928037, 247.218485)"><g><path d="M 14.4375 -26.78125 C 15.039062 -26.78125 15.523438 -26.664062 15.890625 -26.4375 C 16.265625 -26.207031 16.539062 -25.835938 16.71875 -25.328125 L 24.6875 -3.0625 L 26.0625 -3.0625 C 26.570312 -3.0625 26.9375 -2.945312 27.15625 -2.71875 C 27.375 -2.488281 27.484375 -2.09375 27.484375 -1.53125 C 27.484375 -0.976562 27.375 -0.582031 27.15625 -0.34375 C 26.9375 -0.113281 26.570312 0 26.0625 0 L 18.078125 0 C 17.566406 0 17.203125 -0.113281 16.984375 -0.34375 C 16.765625 -0.582031 16.65625 -0.976562 16.65625 -1.53125 C 16.65625 -2.09375 16.765625 -2.488281 16.984375 -2.71875 C 17.203125 -2.945312 17.566406 -3.0625 18.078125 -3.0625 L 21.125 -3.0625 L 19.265625 -8.4375 L 8.328125 -8.4375 L 6.453125 -3.0625 L 9.1875 -3.0625 C 9.695312 -3.0625 10.0625 -2.945312 10.28125 -2.71875 C 10.5 -2.488281 10.609375 -2.09375 10.609375 -1.53125 C 10.609375 -0.976562 10.5 -0.582031 10.28125 -0.34375 C 10.0625 -0.113281 9.695312 0 9.1875 0 L 1.640625 0 C 1.128906 0 0.765625 -0.113281 0.546875 -0.34375 C 0.328125 -0.582031 0.21875 -0.976562 0.21875 -1.53125 C 0.21875 -2.09375 0.328125 -2.488281 0.546875 -2.71875 C 0.765625 -2.945312 1.128906 -3.0625 1.640625 -3.0625 L 2.90625 -3.0625 L 10.375 -23.71875 L 6.15625 -23.71875 C 5.644531 -23.71875 5.28125 -23.832031 5.0625 -24.0625 C 4.84375 -24.300781 4.734375 -24.695312 4.734375 -25.25 C 4.734375 -25.8125 4.84375 -26.207031 5.0625 -26.4375 C 5.28125 -26.664062 5.644531 -26.78125 6.15625 -26.78125 Z M 13.609375 -23.71875 L 9.390625 -11.515625 L 18.234375 -11.515625 L 14.03125 -23.71875 Z M 16.625 -37.640625 C 16.894531 -37.835938 17.171875 -37.9375 17.453125 -37.9375 C 17.972656 -37.9375 18.476562 -37.628906 18.96875 -37.015625 C 19.425781 -36.421875 19.65625 -35.90625 19.65625 -35.46875 C 19.65625 -35.082031 19.488281 -34.789062 19.15625 -34.59375 L 10.71875 -29.65625 C 10.445312 -29.5 10.203125 -29.421875 9.984375 -29.421875 C 9.628906 -29.421875 9.285156 -29.609375 8.953125 -29.984375 C 8.585938 -30.390625 8.40625 -30.78125 8.40625 -31.15625 C 8.40625 -31.445312 8.523438 -31.679688 8.765625 -31.859375 Z M 16.625 -37.640625 "/></g></g></g><g fill="#000000" fill-opacity="1"><g transform="translate(141.641231, 247.218485)"><g/></g></g><g fill="#000000" fill-opacity="1"><g transform="translate(169.354425, 247.218485)"><g><path d="M 15.578125 -26.78125 C 17.578125 -26.78125 19.289062 -26.425781 20.71875 -25.71875 C 22.144531 -25.019531 23.226562 -24.019531 23.96875 -22.71875 C 24.71875 -21.425781 25.09375 -19.929688 25.09375 -18.234375 C 25.09375 -16.535156 24.71875 -15.050781 23.96875 -13.78125 C 23.226562 -12.507812 22.144531 -11.519531 20.71875 -10.8125 C 19.289062 -10.113281 17.578125 -9.765625 15.578125 -9.765625 L 10.265625 -9.765625 L 10.265625 -3.0625 L 15.6875 -3.0625 C 16.195312 -3.0625 16.5625 -2.945312 16.78125 -2.71875 C 17 -2.488281 17.109375 -2.09375 17.109375 -1.53125 C 17.109375 -0.976562 17 -0.582031 16.78125 -0.34375 C 16.5625 -0.113281 16.195312 0 15.6875 0 L 3.234375 0 C 2.710938 0 2.34375 -0.113281 2.125 -0.34375 C 1.914062 -0.582031 1.8125 -0.976562 1.8125 -1.53125 C 1.8125 -2.09375 1.914062 -2.488281 2.125 -2.71875 C 2.34375 -2.945312 2.710938 -3.0625 3.234375 -3.0625 L 6.890625 -3.0625 L 6.890625 -23.71875 L 3.234375 -23.71875 C 2.710938 -23.71875 2.34375 -23.832031 2.125 -24.0625 C 1.914062 -24.300781 1.8125 -24.695312 1.8125 -25.25 C 1.8125 -25.8125 1.914062 -26.207031 2.125 -26.4375 C 2.34375 -26.664062 2.710938 -26.78125 3.234375 -26.78125 Z M 10.265625 -12.84375 L 15.09375 -12.84375 C 17.1875 -12.84375 18.78125 -13.316406 19.875 -14.265625 C 20.976562 -15.210938 21.53125 -16.535156 21.53125 -18.234375 C 21.53125 -19.960938 20.976562 -21.304688 19.875 -22.265625 C 18.769531 -23.234375 17.175781 -23.71875 15.09375 -23.71875 L 10.265625 -23.71875 Z M 10.265625 -12.84375 "/></g></g></g><g fill="#000000" fill-opacity="1"><g transform="translate(197.067619, 247.218485)"><g><path d="M 14.4375 -26.78125 C 15.039062 -26.78125 15.523438 -26.664062 15.890625 -26.4375 C 16.265625 -26.207031 16.539062 -25.835938 16.71875 -25.328125 L 24.6875 -3.0625 L 26.0625 -3.0625 C 26.570312 -3.0625 26.9375 -2.945312 27.15625 -2.71875 C 27.375 -2.488281 27.484375 -2.09375 27.484375 -1.53125 C 27.484375 -0.976562 27.375 -0.582031 27.15625 -0.34375 C 26.9375 -0.113281 26.570312 0 26.0625 0 L 18.078125 0 C 17.566406 0 17.203125 -0.113281 16.984375 -0.34375 C 16.765625 -0.582031 16.65625 -0.976562 16.65625 -1.53125 C 16.65625 -2.09375 16.765625 -2.488281 16.984375 -2.71875 C 17.203125 -2.945312 17.566406 -3.0625 18.078125 -3.0625 L 21.125 -3.0625 L 19.265625 -8.4375 L 8.328125 -8.4375 L 6.453125 -3.0625 L 9.1875 -3.0625 C 9.695312 -3.0625 10.0625 -2.945312 10.28125 -2.71875 C 10.5 -2.488281 10.609375 -2.09375 10.609375 -1.53125 C 10.609375 -0.976562 10.5 -0.582031 10.28125 -0.34375 C 10.0625 -0.113281 9.695312 0 9.1875 0 L 1.640625 0 C 1.128906 0 0.765625 -0.113281 0.546875 -0.34375 C 0.328125 -0.582031 0.21875 -0.976562 0.21875 -1.53125 C 0.21875 -2.09375 0.328125 -2.488281 0.546875 -2.71875 C 0.765625 -2.945312 1.128906 -3.0625 1.640625 -3.0625 L 2.90625 -3.0625 L 10.375 -23.71875 L 6.15625 -23.71875 C 5.644531 -23.71875 5.28125 -23.832031 5.0625 -24.0625 C 4.84375 -24.300781 4.734375 -24.695312 4.734375 -25.25 C 4.734375 -25.8125 4.84375 -26.207031 5.0625 -26.4375 C 5.28125 -26.664062 5.644531 -26.78125 6.15625 -26.78125 Z M 13.609375 -23.71875 L 9.390625 -11.515625 L 18.234375 -11.515625 L 14.03125 -23.71875 Z M 13.609375 -23.71875 "/></g></g></g><g fill="#000000" fill-opacity="1"><g transform="translate(224.780813, 247.218485)"><g><path d="M 22.28125 -27.28125 C 22.894531 -27.28125 23.328125 -27.164062 23.578125 -26.9375 C 23.835938 -26.71875 23.96875 -26.34375 23.96875 -25.8125 L 23.96875 -19.265625 C 23.96875 -18.742188 23.835938 -18.367188 23.578125 -18.140625 C 23.328125 -17.921875 22.894531 -17.8125 22.28125 -17.8125 C 21.65625 -17.8125 21.210938 -17.921875 20.953125 -18.140625 C 20.703125 -18.367188 20.578125 -18.742188 20.578125 -19.265625 C 20.578125 -20.171875 20.332031 -20.976562 19.84375 -21.6875 C 19.351562 -22.394531 18.632812 -22.945312 17.6875 -23.34375 C 16.738281 -23.738281 15.613281 -23.9375 14.3125 -23.9375 C 12.632812 -23.9375 11.148438 -23.507812 9.859375 -22.65625 C 8.578125 -21.800781 7.578125 -20.578125 6.859375 -18.984375 C 6.140625 -17.390625 5.78125 -15.519531 5.78125 -13.375 C 5.78125 -11.238281 6.117188 -9.378906 6.796875 -7.796875 C 7.484375 -6.210938 8.453125 -4.988281 9.703125 -4.125 C 10.960938 -3.269531 12.421875 -2.84375 14.078125 -2.84375 C 16.710938 -2.84375 18.960938 -3.269531 20.828125 -4.125 L 20.828125 -9.25 L 15.25 -9.25 C 14.738281 -9.25 14.375 -9.363281 14.15625 -9.59375 C 13.9375 -9.832031 13.828125 -10.226562 13.828125 -10.78125 C 13.828125 -11.34375 13.9375 -11.738281 14.15625 -11.96875 C 14.375 -12.207031 14.738281 -12.328125 15.25 -12.328125 L 24.9375 -12.328125 C 25.445312 -12.328125 25.8125 -12.207031 26.03125 -11.96875 C 26.25 -11.738281 26.359375 -11.34375 26.359375 -10.78125 C 26.359375 -10.226562 26.25 -9.832031 26.03125 -9.59375 C 25.8125 -9.363281 25.445312 -9.25 24.9375 -9.25 L 24.21875 -9.25 L 24.21875 -3.234375 C 24.21875 -2.492188 23.945312 -1.972656 23.40625 -1.671875 C 22.164062 -0.960938 20.738281 -0.421875 19.125 -0.046875 C 17.519531 0.316406 15.835938 0.5 14.078125 0.5 C 11.734375 0.5 9.660156 -0.0703125 7.859375 -1.21875 C 6.066406 -2.375 4.675781 -4 3.6875 -6.09375 C 2.707031 -8.195312 2.21875 -10.625 2.21875 -13.375 C 2.21875 -16.113281 2.722656 -18.535156 3.734375 -20.640625 C 4.753906 -22.753906 6.160156 -24.390625 7.953125 -25.546875 C 9.753906 -26.703125 11.796875 -27.28125 14.078125 -27.28125 C 15.492188 -27.28125 16.742188 -27.054688 17.828125 -26.609375 C 18.921875 -26.171875 19.835938 -25.539062 20.578125 -24.71875 L 20.578125 -25.8125 C 20.578125 -26.34375 20.703125 -26.71875 20.953125 -26.9375 C 21.210938 -27.164062 21.65625 -27.28125 22.28125 -27.28125 Z M 22.28125 -27.28125 "/></g></g></g><g fill="#000000" fill-opacity="1"><g transform="translate(252.494008, 247.218485)"><g><path d="M 13.859375 -27.28125 C 16.203125 -27.28125 18.269531 -26.703125 20.0625 -25.546875 C 21.863281 -24.390625 23.257812 -22.757812 24.25 -20.65625 C 25.238281 -18.5625 25.734375 -16.132812 25.734375 -13.375 C 25.734375 -10.625 25.238281 -8.195312 24.25 -6.09375 C 23.257812 -4 21.863281 -2.375 20.0625 -1.21875 C 18.269531 -0.0703125 16.203125 0.5 13.859375 0.5 C 11.515625 0.5 9.441406 -0.0703125 7.640625 -1.21875 C 5.835938 -2.375 4.441406 -4 3.453125 -6.09375 C 2.472656 -8.195312 1.984375 -10.625 1.984375 -13.375 C 1.984375 -16.132812 2.472656 -18.5625 3.453125 -20.65625 C 4.441406 -22.757812 5.835938 -24.390625 7.640625 -25.546875 C 9.441406 -26.703125 11.515625 -27.28125 13.859375 -27.28125 Z M 13.859375 -23.9375 C 12.203125 -23.9375 10.742188 -23.507812 9.484375 -22.65625 C 8.234375 -21.800781 7.265625 -20.578125 6.578125 -18.984375 C 5.890625 -17.390625 5.546875 -15.519531 5.546875 -13.375 C 5.546875 -11.238281 5.890625 -9.378906 6.578125 -7.796875 C 7.265625 -6.210938 8.234375 -4.988281 9.484375 -4.125 C 10.742188 -3.269531 12.203125 -2.84375 13.859375 -2.84375 C 15.515625 -2.84375 16.96875 -3.269531 18.21875 -4.125 C 19.476562 -4.988281 20.445312 -6.210938 21.125 -7.796875 C 21.8125 -9.378906 22.15625 -11.238281 22.15625 -13.375 C 22.15625 -15.519531 21.8125 -17.390625 21.125 -18.984375 C 20.445312 -20.578125 19.476562 -21.800781 18.21875 -22.65625 C 16.96875 -23.507812 15.515625 -23.9375 13.859375 -23.9375 Z M 13.859375 -23.9375 "/></g></g></g><g fill="#000000" fill-opacity="1"><g transform="translate(280.207202, 247.218485)"><g><path d="M 13.953125 -28.640625 C 15.578125 -28.640625 16.976562 -28.34375 18.15625 -27.75 C 19.332031 -27.15625 20.234375 -26.328125 20.859375 -25.265625 C 21.484375 -24.203125 21.796875 -22.972656 21.796875 -21.578125 C 21.796875 -20.285156 21.535156 -19.175781 21.015625 -18.25 C 20.503906 -17.320312 19.738281 -16.515625 18.71875 -15.828125 C 17.707031 -15.140625 16.378906 -14.457031 14.734375 -13.78125 L 14.4375 -10.546875 C 14.363281 -9.816406 13.867188 -9.453125 12.953125 -9.453125 C 12.003906 -9.453125 11.507812 -9.816406 11.46875 -10.546875 L 11.171875 -15 C 11.140625 -15.300781 11.179688 -15.539062 11.296875 -15.71875 C 11.410156 -15.90625 11.59375 -16.050781 11.84375 -16.15625 L 13.40625 -16.796875 C 14.601562 -17.285156 15.550781 -17.75 16.25 -18.1875 C 16.957031 -18.625 17.476562 -19.113281 17.8125 -19.65625 C 18.15625 -20.195312 18.328125 -20.835938 18.328125 -21.578125 C 18.328125 -22.703125 17.945312 -23.601562 17.1875 -24.28125 C 16.425781 -24.957031 15.351562 -25.296875 13.96875 -25.296875 C 12.0625 -25.296875 10.445312 -25.019531 9.125 -24.46875 L 9.125 -22.453125 C 9.125 -21.929688 8.992188 -21.554688 8.734375 -21.328125 C 8.472656 -21.097656 8.035156 -20.984375 7.421875 -20.984375 C 6.804688 -20.984375 6.367188 -21.097656 6.109375 -21.328125 C 5.859375 -21.554688 5.734375 -21.929688 5.734375 -22.453125 L 5.734375 -25.328125 C 5.734375 -25.640625 5.773438 -25.894531 5.859375 -26.09375 C 5.953125 -26.300781 6.097656 -26.460938 6.296875 -26.578125 C 8.566406 -27.953125 11.117188 -28.640625 13.953125 -28.640625 Z M 12.953125 -5.1875 C 13.867188 -5.1875 14.53125 -5.078125 14.9375 -4.859375 C 15.34375 -4.640625 15.546875 -4.273438 15.546875 -3.765625 L 15.546875 -1.203125 C 15.546875 -0.679688 15.34375 -0.3125 14.9375 -0.09375 C 14.53125 0.113281 13.867188 0.21875 12.953125 0.21875 C 12.035156 0.21875 11.375 0.113281 10.96875 -0.09375 C 10.5625 -0.3125 10.359375 -0.679688 10.359375 -1.203125 L 10.359375 -3.765625 C 10.359375 -4.273438 10.5625 -4.640625 10.96875 -4.859375 C 11.375 -5.078125 12.035156 -5.1875 12.953125 -5.1875 Z M 12.953125 -5.1875 "/></g></g></g></svg>